HIERARCHY
ROOT Hips
{
  OFFSET 62.09 96.9958 -4.43659
  CHANNELS 6 Xposition Yposition Zposition Zrotation Xrotation Yrotation
  JOINT spine
  {
    OFFSET 0 7.96568 0.458067
    CHANNELS 3 Zrotation Xrotation Yrotation
    JOINT spine1
    {
      OFFSET 0 10.2431 0
      CHANNELS 3 Zrotation Xrotation Yrotation
      JOINT spine2
      {
        OFFSET 0 9.81475 0
        CHANNELS 3 Zrotation Xrotation Yrotation
        JOINT Neck
        {
          OFFSET 0 25.1986 1.20138
          CHANNELS 3 Zrotation Xrotation Yrotation
          JOINT Head
          {
            OFFSET 0 7.61315 0
            CHANNELS 3 Zrotation Xrotation Yrotation
            End Site
            {
              OFFSET 0 18.4281 -6.07733
            }
          }
        }
        JOINT RightShoulder
        {
          OFFSET -4.1327 10.5992 -0.575451
          CHANNELS 3 Zrotation Xrotation Yrotation
          JOINT RightArm
          {
            OFFSET 0 13.9018 0
            CHANNELS 3 Zrotation Xrotation Yrotation
            JOINT RightArmRoll
            {
              OFFSET 0 7.01789 0
              CHANNELS 3 Zrotation Xrotation Yrotation
              JOINT RightForeArm
              {
                OFFSET 0 20.4406 0
                CHANNELS 3 Zrotation Xrotation Yrotation
                JOINT RightForeArmRoll
                {
                  OFFSET 0 7.87516 0
                  CHANNELS 3 Zrotation Xrotation Yrotation
                  JOINT RightHand
                  {
                    OFFSET 0 15.8037 0
                    CHANNELS 3 Zrotation Xrotation Yrotation
                    End Site
                    {
                      OFFSET 0 0 0
                    }
                  }
                }
              }
            }
          }
        }
        JOINT LeftShoulder
        {
          OFFSET 4.1327 10.5992 -0.575451
          CHANNELS 3 Zrotation Xrotation Yrotation
          JOINT LeftArm
          {
            OFFSET 0 13.9018 0
            CHANNELS 3 Zrotation Xrotation Yrotation
            JOINT LeftArmRoll
            {
              OFFSET 0 7.01789 0
              CHANNELS 3 Zrotation Xrotation Yrotation
              JOINT LeftForeArm
              {
                OFFSET 0 20.4406 0
                CHANNELS 3 Zrotation Xrotation Yrotation
                JOINT LeftForeArmRoll
                {
                  OFFSET 0 7.87516 0
                  CHANNELS 3 Zrotation Xrotation Yrotation
                  JOINT LeftHand
                  {
                    OFFSET 0 15.8037 0
                    CHANNELS 3 Zrotation Xrotation Yrotation
                    End Site
                    {
                      OFFSET 0 0 0
                    }
                  }
                }
              }
            }
          }
        }
      }
    }
  }
  JOINT RightUpLeg
  {
    OFFSET -7.06048 -1.2947 -1.0861
    CHANNELS 3 Zrotation Xrotation Yrotation
    JOINT RightUpLegRoll
    {
      OFFSET 0 18.5308 0
      CHANNELS 3 Zrotation Xrotation Yrotation
      JOINT RightLeg
      {
        OFFSET 0 -22.9476 0
        CHANNELS 3 Zrotation Xrotation Yrotation
        JOINT RightLegRoll
        {
          OFFSET 0 23.0226 0
          CHANNELS 3 Zrotation Xrotation Yrotation
          JOINT RightFoot
          {
            OFFSET 0 19.1625 0
            CHANNELS 3 Zrotation Xrotation Yrotation
            JOINT RightToeBase
            {
              OFFSET 0 16.0188 0
              CHANNELS 3 Zrotation Xrotation Yrotation
              End Site
              {
                OFFSET 0.00678979 7.75781 -0.894207
              }
            }
          }
        }
      }
    }
  }
  JOINT LeftUpLeg
  {
    OFFSET 7.06048 -1.2947 -1.0861
    CHANNELS 3 Zrotation Xrotation Yrotation
    JOINT LeftUpLegRoll
    {
      OFFSET 0 18.5309 0
      CHANNELS 3 Zrotation Xrotation Yrotation
      JOINT LeftLeg
      {
        OFFSET 0 22.9475 0
        CHANNELS 3 Zrotation Xrotation Yrotation
        JOINT LeftLegRoll
        {
          OFFSET 0 23.2355 0
          CHANNELS 3 Zrotation Xrotation Yrotation
          JOINT LeftFoot
          {
            OFFSET 0 18.9496 0
            CHANNELS 3 Zrotation Xrotation Yrotation
            JOINT LeftToeBase
            {
              OFFSET 0 16.0188 0
              CHANNELS 3 Zrotation Xrotation Yrotation
              End Site
              {
                OFFSET -0.0304289 7.75782 -0.894206
              }
            }
          }
        }
      }
    }
  }
}
MOTION
Frames: 7
Frame Time: 0.00208333
56.4027 105.709 -11.5002 2.30982 1.43563 7.87163 -0.225497 -1.01955 0.0297572 -0.457715 1.9635 0.0853248 -0.459157 3.60854 0.0930587 -9.37213 -4.07254 -0.0378887 3.47162 10.6005 -1.17071 51.3919 -10.0504 -6.22546 63.6902 -1.18178 52.8876 6.97676e-006 -1.3071e-006 1.2699e-006 -10.6711 54.2443 7.11032 -2.97035e-005 -1.05136e-005 -3.00686 8.02889 -4.95143 0.697674 -58.5124 -1.14412 0.682659 -61.0808 24.3031 -43.0257 -4.60759e-006 1.57919e-006 -9.10846e-008 9.11488 51.9497 -4.62462 3.65399e-007 -2.02184e-007 3.0063 -8.02894 -4.95141 -0.697663 169.305 2.79778 5.92279 -180 7.01387e-015 178.369 -179.865 8.58618 179.433 -2.69008e-006 -6.75328e-007 -0.266192 -15.4963 62.5504 15.8822 8.13649 25.2327 -3.48774 -170.349 9.17892 -3.12286 4.5067e-006 -1.99009e-005 -1.07489 0.121045 -18.8466 0.584265 4.35369e-006 -2.58604e-006 -0.363935 19.7764 69.2403 -20.6306 -8.13649 25.2327 3.48773 
56.468 105.729 -11.5283 2.28327 1.4427 7.84383 -0.223716 -1.01053 0.0293381 -0.453836 1.98154 0.0847063 -0.455269 3.62658 0.0923754 -8.91255 -4.27954 -0.0694945 2.95163 10.6871 -1.13617 51.836 -10.0191 -6.20296 63.8713 -1.15318 52.5613 6.97676e-006 -1.3071e-006 1.2699e-006 -10.5768 53.823 6.94823 -2.97035e-005 -1.05136e-005 -3.00686 8.02889 -4.95143 0.697674 -58.6722 -1.07384 0.65647 -61.4654 24.078 -42.4981 -4.60759e-006 1.57919e-006 -9.10845e-008 8.82582 51.3042 -4.36939 3.65399e-007 -2.02184e-007 3.0063 -8.02894 -4.95141 -0.697663 169.513 2.89253 5.88746 -180 7.01392e-015 178.384 -179.984 8.71817 179.439 -2.69008e-006 -6.75328e-007 -0.249279 -15.5138 62.6147 15.9183 8.13649 25.2327 -3.48774 -170.494 9.2233 -3.09536 4.5067e-006 -1.99009e-005 -1.07344 0.0296476 -18.9286 0.569415 4.35369e-006 -2.58604e-006 -0.36411 19.7848 69.2536 -20.6431 -8.13649 25.2327 3.48773 
56.4389 105.789 -11.4894 2.25813 1.45136 7.8186 -0.222185 -1.00077 0.0284864 -0.45031 2.00107 0.0833327 -0.451727 3.64612 0.0909424 -8.48276 -4.52066 -0.102155 2.47248 10.8019 -1.10569 52.2802 -9.9923 -6.18421 64.0532 -1.11505 52.2345 6.97676e-006 -1.3071e-006 1.2699e-006 -10.4806 53.3897 6.78442 -2.97035e-005 -1.05136e-005 -3.00686 8.02889 -4.95143 0.697674 -58.8312 -1.00857 0.633771 -61.8469 23.871 -41.9718 -4.60759e-006 1.57919e-006 -9.10846e-008 8.53642 50.6449 -4.11639 3.65399e-007 -2.02184e-007 3.0063 -8.02894 -4.95141 -0.697663 169.718 2.99706 5.85441 -180 7.01397e-015 178.399 179.896 8.87117 179.445 -2.69008e-006 -6.75328e-007 -0.231651 -15.5361 62.6876 15.9592 8.13649 25.2327 -3.48774 -170.644 9.26891 -3.06469 4.5067e-006 -1.99009e-005 -1.07225 -0.0601587 -19.0144 0.554887 4.35369e-006 -2.58604e-006 -0.36415 19.7921 69.2653 -20.6541 -8.13649 25.2327 3.48773 
56.5444 105.81 -11.4495 2.23415 1.46173 7.79535 -0.220863 -0.990402 0.0272822 -0.447084 2.02181 0.0813437 -0.448476 3.66686 0.0888984 -8.08123 -4.79176 -0.13574 2.03158 10.9414 -1.07903 52.7238 -9.96925 -6.1687 64.2359 -1.06772 51.9074 6.97676e-006 -1.3071e-006 1.2699e-006 -10.3831 52.945 6.61955 -2.97035e-005 -1.05136e-005 -3.00686 8.02889 -4.95143 0.697674 -58.9893 -0.948071 0.614345 -62.2254 23.6804 -41.4468 -4.60759e-006 1.57919e-006 -9.10846e-008 8.24764 49.9733 -3.86661 3.65399e-007 -2.02184e-007 3.0063 -8.02894 -4.95141 -0.697663 169.919 3.11053 5.823 -180 7.01402e-015 178.415 179.777 9.0423 179.45 -2.69008e-006 -6.75328e-007 -0.213465 -15.5626 62.7679 16.0044 8.13649 25.2327 -3.48774 -170.796 9.31619 -3.03113 4.5067e-006 -1.99009e-005 -1.07128 -0.148298 -19.1035 0.540682 4.35369e-006 -2.58604e-006 -0.364076 19.7984 69.2756 -20.6638 -8.13649 25.2327 3.48773 
56.497 105.838 -11.4394 2.21109 1.47391 7.77348 -0.219712 -0.97958 0.0258059 -0.444103 2.04346 0.0788788 -0.445466 3.68851 0.0863825 -7.70645 -5.08872 -0.170123 1.62633 11.1026 -1.05595 53.1666 -9.94931 -6.15594 64.4194 -1.01153 51.5804 6.97676e-006 -1.3071e-006 1.2699e-006 -10.2848 52.4898 6.45422 -2.97035e-005 -1.05136e-005 -3.00686 8.02889 -4.95143 0.697674 -59.1462 -0.89213 0.597978 -62.6012 23.5049 -40.9237 -4.60759e-006 1.57919e-006 -9.10846e-008 7.96033 49.2909 -3.6209 3.65399e-007 -2.02184e-007 3.0063 -8.02894 -4.95141 -0.697663 170.118 3.23209 5.79254 -180 7.01408e-015 178.431 179.658 9.2287 179.455 -2.69008e-006 -6.75329e-007 -0.194875 -15.5929 62.8546 16.0532 8.13649 25.2327 -3.48774 -170.952 9.36554 -2.99496 4.5067e-006 -1.99009e-005 -1.0705 -0.234695 -19.1958 0.526806 4.35369e-006 -2.58604e-006 -0.363913 19.8036 69.2846 -20.6723 -8.13649 25.2327 3.48773 
56.476 105.857 -11.482 2.18871 1.488 7.7524 -0.218691 -0.968446 0.0241376 -0.441313 2.06573 0.0760781 -0.442643 3.71078 0.0835336 -7.35688 -5.40739 -0.205175 1.25416 11.2821 -1.03622 53.6079 -9.9318 -6.14542 64.6038 -0.94687 51.254 6.97676e-006 -1.3071e-006 1.2699e-006 -10.186 52.0247 6.28901 -2.97035e-005 -1.05136e-005 -3.00686 8.02889 -4.95143 0.697674 -59.3019 -0.840519 0.584454 -62.9745 23.3426 -40.4027 -4.60759e-006 1.57919e-006 -9.10846e-008 7.6752 48.5992 -3.38004 3.65399e-007 -2.02184e-007 3.0063 -8.02894 -4.95141 -0.697663 170.315 3.36089 5.76236 -180 7.01413e-015 178.447 179.54 9.42749 179.46 -2.69008e-006 -6.75329e-007 -0.176035 -15.6263 62.9464 16.1052 8.13649 25.2327 -3.48774 -171.11 9.41741 -2.95647 4.5067e-006 -1.99009e-005 -1.06987 -0.319274 -19.291 0.513261 4.35369e-006 -2.58604e-006 -0.363682 19.8081 69.2924 -20.6798 -8.13649 25.2327 3.48773 
56.5097 105.871 -11.44 2.16677 1.5041 7.73151 -0.217762 -0.957145 0.0223575 -0.438661 2.08834 0.073081 -0.439956 3.73339 0.0804907 -7.03097 -5.74363 -0.240768 0.912499 11.4767 -1.01958 54.0472 -9.91605 -6.13662 64.7892 -0.874118 50.9286 6.97676e-006 -1.3071e-006 1.2699e-006 -10.0872 51.5505 6.12446 -2.97035e-005 -1.05136e-005 -3.00686 8.02889 -4.95143 0.697674 -59.4563 -0.793014 0.573556 -63.3454 23.1921 -39.8844 -4.60759e-006 1.57919e-006 -9.10845e-008 7.39289 47.8997 -3.14474 3.65399e-007 -2.02184e-007 3.0063 -8.02894 -4.95141 -0.697663 170.511 3.49609 5.7318 -180 7.01419e-015 178.464 179.423 9.63576 179.464 -2.69008e-006 -6.75329e-007 -0.157101 -15.6625 63.0422 16.1597 8.13649 25.2327 -3.48774 -171.269 9.47221 -2.91594 4.5067e-006 -1.99009e-005 -1.06936 -0.401958 -19.3888 0.500051 4.35369e-006 -2.58604e-006 -0.363407 19.8118 69.2994 -20.6863 -8.13649 25.2327 3.48773 
